<svg width="24" height="24" viewBox="0 0 24 24" fill="none" xmlns="http://www.w3.org/2000/svg">
<circle cx="12" cy="12" r="12" fill="#EDF2F7"/>
<g clip-path="url(#clip0_294_2714)">
<path d="M9.47067 11.865L12.0296 9.30601L14.5898 11.8661L16.0788 10.3771L12.0296 6.32812L7.98183 10.3759L9.47072 11.8649L9.47067 11.865ZM5.44141 12.9164L6.9304 11.4272L8.41929 12.916L6.93029 14.405L5.44141 12.9164ZM9.47067 13.9679L12.0296 16.5267L14.5898 13.9667L16.0795 15.4548L16.0788 15.4556L12.0296 19.5046L7.98183 15.4568L7.97972 15.4547L9.47082 13.9677L9.47067 13.9679ZM15.64 12.917L17.129 11.428L18.6179 12.9169L17.1289 14.4059L15.64 12.917Z" fill="#F3BA2F"/>
<path d="M13.5394 12.9151H13.54L12.0293 11.4043L10.9126 12.5206L10.7843 12.649L10.5197 12.9136L10.5176 12.9157L10.5197 12.9178L12.0293 14.4276L13.5402 12.9167L13.5409 12.9159L13.5395 12.9151" fill="#F3BA2F"/>
</g>
<defs>
<clipPath id="clip0_294_2714">
<rect width="14" height="14" fill="white" transform="translate(5.41602 5.54492)"/>
</clipPath>
</defs>
</svg>
