<svg width="25" height="24" viewBox="0 0 25 24" fill="none" xmlns="http://www.w3.org/2000/svg">
<circle cx="12.5" cy="12" r="12" fill="#E9D8FD"/>
<g clip-path="url(#clip0_297_2708)">
<path d="M16.0729 9.72005C15.8177 9.57422 15.4896 9.57422 15.1979 9.72005L13.1562 10.9232L11.7708 11.6888L9.76562 12.8919C9.51042 13.0378 9.18229 13.0378 8.89062 12.8919L7.32292 11.944C7.06771 11.7982 6.88542 11.5065 6.88542 11.1784V9.35547C6.88542 9.0638 7.03125 8.77214 7.32292 8.58984L8.89062 7.67839C9.14583 7.53255 9.47396 7.53255 9.76562 7.67839L11.3333 8.6263C11.5885 8.77214 11.7708 9.0638 11.7708 9.39193V10.5951L13.1562 9.79297V8.55339C13.1562 8.26172 13.0104 7.97005 12.7187 7.78776L9.80208 6.07422C9.54688 5.92839 9.21875 5.92839 8.92708 6.07422L5.9375 7.82422C5.64583 7.97005 5.5 8.26172 5.5 8.55339V11.9805C5.5 12.2721 5.64583 12.5638 5.9375 12.7461L8.89062 14.4596C9.14583 14.6055 9.47396 14.6055 9.76562 14.4596L11.7708 13.293L13.1562 12.4909L15.1615 11.3242C15.4167 11.1784 15.7448 11.1784 16.0365 11.3242L17.6042 12.2357C17.8594 12.3815 18.0417 12.6732 18.0417 13.0013V14.8242C18.0417 15.1159 17.8958 15.4076 17.6042 15.5898L16.0729 16.5013C15.8177 16.6471 15.4896 16.6471 15.1979 16.5013L13.6302 15.5898C13.375 15.444 13.1927 15.1523 13.1927 14.8242V13.6576L11.8073 14.4596V15.6628C11.8073 15.9544 11.9531 16.2461 12.2448 16.4284L15.1979 18.1419C15.4531 18.2878 15.7812 18.2878 16.0729 18.1419L19.026 16.4284C19.2812 16.2826 19.4635 15.9909 19.4635 15.6628V12.1992C19.4635 11.9076 19.3177 11.6159 19.026 11.4336L16.0729 9.72005Z" fill="#8247E5"/>
</g>
<defs>
<clipPath id="clip0_297_2708">
<rect width="14" height="12.2135" fill="white" transform="translate(5.5 6)"/>
</clipPath>
</defs>
</svg>
