<?xml version="1.0" standalone="no"?>
<!DOCTYPE svg PUBLIC "-//W3C//DTD SVG 20010904//EN"
 "http://www.w3.org/TR/2001/REC-SVG-20010904/DTD/svg10.dtd">
<svg version="1.0" xmlns="http://www.w3.org/2000/svg"
 width="1585.000000pt" height="1585.000000pt" viewBox="0 0 1585.000000 1585.000000"
 preserveAspectRatio="xMidYMid meet">
<metadata>
Created by potrace 1.14, written by Peter Selinger 2001-2017
</metadata>
<g transform="translate(0.000000,1585.000000) scale(0.100000,-0.100000)"
fill="#000000" stroke="none">
<path d="M7107 14594 c-1 -1 -54 -4 -117 -8 -63 -3 -126 -8 -140 -10 -14 -3
-50 -7 -80 -10 -30 -4 -84 -11 -120 -17 -36 -6 -76 -12 -90 -14 -14 -2 -34 -6
-45 -9 -11 -2 -55 -12 -98 -21 -183 -38 -550 -156 -652 -209 -17 -9 -33 -16
-37 -16 -10 0 -245 -115 -318 -156 -134 -75 -394 -242 -410 -264 -3 -4 -12
-11 -21 -16 -20 -11 -86 -63 -111 -86 -10 -10 -22 -18 -27 -18 -5 0 -11 -3
-13 -7 -1 -5 -39 -39 -83 -78 -191 -167 -372 -364 -548 -596 -89 -117 -219
-327 -315 -509 -24 -47 -49 -88 -56 -92 -6 -3 -47 -16 -91 -27 -421 -108 -862
-329 -1215 -610 -127 -100 -155 -126 -289 -261 -285 -287 -505 -623 -648 -988
-42 -107 -98 -279 -107 -326 -2 -12 -11 -48 -20 -81 -27 -104 -59 -330 -65
-457 -1 -20 -14 -36 -53 -64 -628 -453 -1083 -1147 -1252 -1910 -19 -87 -38
-184 -41 -214 -3 -30 -8 -62 -10 -70 -28 -109 -33 -546 -10 -745 4 -33 9 -73
10 -90 4 -46 35 -226 45 -260 5 -16 11 -41 14 -55 15 -89 109 -386 158 -500
67 -159 277 -548 308 -570 3 -3 21 -27 40 -55 122 -182 369 -449 565 -613 558
-466 1262 -734 1975 -751 32 -1 39 -7 85 -79 73 -113 200 -281 265 -353 316
-343 593 -553 980 -744 283 -140 563 -224 930 -279 177 -27 583 -27 760 0 153
23 235 38 340 62 l75 18 110 -111 c514 -518 1160 -859 1895 -1000 63 -12 140
-25 190 -31 30 -4 66 -8 80 -10 199 -27 743 -26 884 2 12 2 41 6 66 9 226 27
533 104 785 197 81 30 89 34 205 84 154 67 479 244 488 266 2 4 8 8 14 8 9 0
214 142 265 184 159 130 213 178 327 292 127 127 282 310 351 414 17 25 37 53
45 62 9 9 47 68 85 131 64 107 71 115 99 114 40 0 272 13 294 18 9 1 49 6 87
9 39 4 77 9 85 11 8 2 33 6 54 10 42 6 67 11 131 25 316 72 540 148 795 272
106 52 328 177 374 211 6 4 54 37 106 74 200 140 483 397 620 561 25 30 50 59
56 65 27 31 149 195 202 274 174 260 321 565 416 860 23 73 72 256 82 308 2
11 11 56 20 100 17 85 17 84 29 185 4 36 8 67 10 70 7 12 19 247 18 385 0 134
-9 329 -18 373 -1 10 -6 46 -10 82 -6 54 -38 229 -61 330 -50 226 -152 506
-274 751 l-57 117 29 68 c60 138 144 411 162 524 3 19 7 44 10 55 2 11 7 45
11 75 4 30 9 62 10 71 16 83 22 386 10 504 -12 129 -16 162 -26 217 -6 32 -12
70 -15 85 -35 203 -140 501 -254 719 -44 83 -159 270 -190 307 -5 7 -40 50
-76 96 -276 351 -645 630 -1054 796 -101 41 -188 73 -220 80 -8 2 -44 12 -80
23 -36 11 -94 25 -130 33 -36 7 -68 17 -72 23 -4 6 -17 40 -29 76 -53 160
-174 429 -247 550 -12 19 -30 51 -41 70 -39 71 -226 337 -261 370 -3 3 -29 34
-59 70 -94 113 -248 260 -429 411 -147 123 -462 315 -662 403 -36 16 -78 35
-95 42 -180 82 -550 181 -780 210 -27 3 -61 8 -75 10 -170 28 -615 21 -800
-12 -14 -2 -47 -7 -75 -10 -27 -3 -53 -8 -56 -10 -4 -2 -24 -6 -45 -9 -47 -7
-324 -79 -378 -98 l-39 -13 -121 80 c-67 45 -130 86 -141 93 -142 86 -324 179
-475 242 -69 29 -134 57 -145 61 -82 37 -466 149 -565 165 -19 3 -42 8 -50 10
-8 2 -31 7 -50 10 -19 3 -46 7 -60 10 -47 9 -85 14 -143 20 -32 4 -66 8 -76
10 -58 11 -523 28 -534 19z"/>
</g>
</svg>
