<svg width="400" height="340" viewBox="0 0 400 340" fill="none" xmlns="http://www.w3.org/2000/svg">
<path d="M367.309 186.434C348.371 178.446 327.357 175.559 306.705 178.105C286.053 180.652 266.61 188.527 250.63 200.82C234.652 213.112 222.792 229.318 216.428 247.556C210.064 265.793 209.456 285.316 214.674 303.858H18.3655C13.4946 303.858 8.82333 302.079 5.37906 298.913C1.93499 295.748 0 291.454 0 286.977V16.881C0 12.4038 1.93499 8.11013 5.37906 4.94427C8.82333 1.77858 13.4946 0 18.3655 0H348.944C353.815 0 358.487 1.77858 361.93 4.94427C365.374 8.11013 367.309 12.4038 367.309 16.881V186.434ZM184.757 146.578L66.9972 54.6606L43.214 80.3873L184.995 191.042L324.224 80.3029L300.202 54.7619L184.775 146.578H184.757ZM321.396 316.519L272.819 339.983L282.094 290.269L242.792 255.055L297.098 247.796L321.396 202.572L345.693 247.813L400 255.072L360.698 290.269L369.972 340L321.396 316.519Z" fill="#FF5CAA"/>
</svg>
